HIERARCHY
ROOT Hips
{
	OFFSET 0.000000 0.000000 0.000000
	CHANNELS 6 Xposition Yposition Zposition Yrotation Xrotation Zrotation
	JOINT Chest
	{
		OFFSET 0.000000 -0.009281 11.569106
		CHANNELS 3 Yrotation Xrotation Zrotation
		JOINT Chest2
		{
			OFFSET -0.000000 0.016865 9.269641
			CHANNELS 3 Yrotation Xrotation Zrotation
			JOINT Chest3
			{
				OFFSET -0.000000 0.000001 8.374491
				CHANNELS 3 Yrotation Xrotation Zrotation
				JOINT Chest4
				{
					OFFSET -0.000000 0.000001 8.374493
					CHANNELS 3 Yrotation Xrotation Zrotation
					JOINT Neck
					{
						OFFSET -0.000000 0.000002 12.152554
						CHANNELS 3 Yrotation Xrotation Zrotation
						JOINT Head
						{
							OFFSET -0.000000 0.040101 7.802319
							CHANNELS 3 Yrotation Xrotation Zrotation
							End Site
							{
								OFFSET -0.000000 0.020947 14.853096
							}
						}
					}
					JOINT RightCollar
					{
						OFFSET 2.894404 0.000001 6.791374
						CHANNELS 3 Yrotation Xrotation Zrotation
						JOINT RightShoulder
						{
							OFFSET 13.574684 0.000001 0.000000
							CHANNELS 3 Yrotation Xrotation Zrotation
							JOINT RightElbow
							{
								OFFSET 23.923903 0.000002 0.000000
								CHANNELS 3 Yrotation Xrotation Zrotation
								JOINT RightWrist
								{
									OFFSET 19.846718 0.012767 0.000000
									CHANNELS 3 Yrotation Xrotation Zrotation
									End Site
									{
										OFFSET 14.973145 0.000001 0.000000
									}
								}
							}
						}
					}
					JOINT LeftCollar
					{
						OFFSET -2.894404 0.000001 6.791374
						CHANNELS 3 Yrotation Xrotation Zrotation
						JOINT LeftShoulder
						{
							OFFSET -13.574684 -0.000001 0.000000
							CHANNELS 3 Yrotation Xrotation Zrotation
							JOINT LeftElbow
							{
								OFFSET -23.923903 -0.000002 0.000000
								CHANNELS 3 Yrotation Xrotation Zrotation
								JOINT LeftWrist
								{
									OFFSET -19.846718 0.012763 0.000000
									CHANNELS 3 Yrotation Xrotation Zrotation
									End Site
									{
										OFFSET -14.973145 -0.000001 0.000000
									}
								}
							}
						}
					}
				}
			}
		}
	}
	JOINT RightHip
	{
		OFFSET 9.469263 0.004643 0.045487
		CHANNELS 3 Yrotation Xrotation Zrotation
		JOINT RightKnee
		{
			OFFSET 0.000000 0.002661 -40.478676
			CHANNELS 3 Yrotation Xrotation Zrotation
			JOINT RightAnkle
			{
				OFFSET 0.000000 0.049106 -35.224068
				CHANNELS 3 Yrotation Xrotation Zrotation
				JOINT RightToe
				{
					OFFSET -0.000001 12.539529 -6.151390
					CHANNELS 3 Yrotation Xrotation Zrotation
					End Site
					{
						OFFSET -0.000001 5.044994 -1.291870
					}
				}
			}
		}
	}
	JOINT LeftHip
	{
		OFFSET -9.469263 0.004641 0.045487
		CHANNELS 3 Yrotation Xrotation Zrotation
		JOINT LeftKnee
		{
			OFFSET 0.000000 0.002661 -40.478676
			CHANNELS 3 Yrotation Xrotation Zrotation
			JOINT LeftAnkle
			{
				OFFSET 0.000000 0.049106 -35.224068
				CHANNELS 3 Yrotation Xrotation Zrotation
				JOINT LeftToe
				{
					OFFSET -0.000001 12.539529 -6.151390
					CHANNELS 3 Yrotation Xrotation Zrotation
					End Site
					{
						OFFSET -0.000001 5.044994 -1.291870
					}
				}
			}
		}
	}
}
MOTION
Frames: 14
Frame Time: 0.016667
4.966587 1.417328 83.191261 -5.326803 -2.428223 -97.221842 -6.439186 -4.194329 4.213228 -2.855154 -2.139411 1.530253 -2.855153 -2.139411 1.530253 -2.135772 -1.611759 1.137586 5.037086 -13.890270 -13.292283 4.288539 10.159381 -23.067309 1.910251 19.415938 -5.534845 28.169886 8.796818 39.582930 -27.019223 -18.203047 76.821439 -22.075508 -24.440208 -9.349197 -5.962692 7.431649 -7.733354 -31.090147 -21.892945 -3.927898 -59.456933 -64.061014 -46.854309 -47.357407 5.334604 26.728931 2.006449 -3.127911 -0.178308 3.600731 -10.143421 -4.937841 -1.211388 7.955648 -5.072227 0.137348 0.568692 0.212021 2.108792 -2.721520 -3.663586 0.443913 -5.930621 0.732954 -2.238520 3.600490 -2.581025 0.217499 -0.347580 -0.053766 
4.838457 1.422947 83.158836 -5.180930 -2.389877 -97.193537 -6.514978 -4.160506 4.297268 -2.904728 -2.175434 1.523693 -2.904728 -2.175434 1.523693 -2.172874 -1.638872 1.132319 5.134155 -13.725810 -13.168615 4.492694 10.487273 -22.809944 1.847937 19.294291 -5.749319 28.185172 8.895373 39.273537 -27.020334 -17.626977 79.276872 -22.710748 -24.068048 -8.819808 -5.952652 7.323327 -7.714715 -31.045037 -21.808997 -3.831623 -59.311689 -64.135408 -47.152508 -47.287630 5.442193 26.834656 1.845301 -2.331033 0.336561 4.065393 -11.254963 -5.540378 -1.403221 8.316379 -5.162742 0.165351 0.614696 0.251562 2.063883 -2.157090 -3.557756 0.494894 -6.625187 0.544933 -2.329763 3.930165 -2.536172 0.210014 -0.373261 -0.064112 
4.710603 1.435371 83.117912 -5.023161 -2.320785 -97.172842 -6.600526 -4.117151 4.349070 -2.953439 -2.203348 1.506764 -2.953440 -2.203348 1.506763 -2.209389 -1.659850 1.119311 5.229029 -13.562275 -13.044086 4.694331 10.812685 -22.550916 1.748148 19.111276 -5.961635 28.190272 8.973724 39.015116 -26.813169 -17.084653 81.660191 -23.647478 -23.586839 -8.070022 -5.965764 7.220511 -7.657820 -31.018051 -21.761987 -3.699990 -59.138264 -64.203027 -47.482953 -47.155769 5.624289 26.966642 1.608890 -1.455596 0.807665 4.617965 -12.479078 -6.147976 -1.592333 8.703555 -5.198434 0.178437 0.684496 0.281278 1.972817 -1.534921 -3.492414 0.561213 -7.407420 0.392357 -2.426702 4.281909 -2.499547 0.205668 -0.376415 -0.072389 
4.553449 1.467485 83.064125 -4.756933 -2.227181 -97.252229 -6.698413 -3.965254 4.456535 -3.004956 -2.225764 1.486138 -3.004958 -2.225765 1.486138 -2.248033 -1.676688 1.103546 5.341700 -13.393254 -12.936821 4.923032 11.148715 -22.316943 1.649049 18.947959 -6.163455 28.187079 8.934356 38.732978 -26.661693 -16.509674 84.036394 -24.747469 -23.070791 -7.141502 -5.960620 7.108445 -7.564026 -30.981386 -21.708025 -3.595991 -59.047798 -64.266971 -47.743931 -47.031651 5.832080 27.094303 1.311754 -0.385220 1.317357 5.246781 -13.810882 -6.677341 -1.775370 9.103258 -5.227130 0.171198 0.759915 0.267236 1.836773 -0.740917 -3.305254 0.670027 -8.308444 0.236679 -2.519551 4.695230 -2.487201 0.190601 -0.387994 -0.075899 
4.386400 1.501122 82.996086 -4.485279 -2.141806 -97.353903 -6.792637 -3.814222 4.572112 -3.063596 -2.251092 1.465909 -3.063599 -2.251092 1.465909 -2.292016 -1.695729 1.088034 5.478382 -13.215272 -12.856312 5.186338 11.501860 -22.123630 1.566744 18.872460 -6.369806 28.209182 8.782385 38.443850 -26.608609 -15.933095 86.435887 -25.698085 -22.504437 -6.377620 -5.959339 7.025092 -7.499834 -30.927213 -21.651449 -3.476021 -59.079429 -64.307618 -47.897026 -46.920131 6.030115 27.262529 1.040958 0.698119 1.792635 5.865712 -15.140036 -7.108078 -1.984057 9.497686 -5.328862 0.182825 0.819266 0.265500 1.694379 0.115339 -3.108635 0.801666 -9.327058 0.157814 -2.598688 5.175917 -2.533500 0.156941 -0.408676 -0.078822 
4.235503 1.520852 82.913071 -4.291646 -2.064412 -97.402753 -6.868533 -3.738773 4.629413 -3.121933 -2.279589 1.439688 -3.121931 -2.279590 1.439688 -2.335784 -1.717109 1.068006 5.612087 -13.035197 -12.790915 5.438919 11.856744 -21.959396 1.489860 18.746819 -6.533371 28.242067 8.766649 38.215086 -26.506940 -15.470851 88.890363 -26.410940 -22.042400 -5.827636 -5.990942 6.979957 -7.447612 -30.878503 -21.634351 -3.316940 -59.031194 -64.365838 -48.120745 -46.794323 6.299598 27.425474 0.797182 1.658123 2.143764 6.460404 -16.405985 -7.488228 -2.240276 9.879113 -5.393941 0.229495 0.863395 0.301056 1.534820 0.936233 -3.070819 0.960852 -10.453708 0.187592 -2.669516 5.716914 -2.565991 0.100202 -0.422839 -0.080059 
4.103380 1.535200 82.812820 -4.137331 -1.983407 -97.401223 -6.948210 -3.712588 4.652780 -3.175323 -2.308394 1.417216 -3.175325 -2.308394 1.417216 -2.375832 -1.738725 1.050802 5.739846 -12.846856 -12.754090 5.668862 12.223500 -21.851537 1.436004 18.468287 -6.665824 28.258598 9.025759 38.083130 -26.395941 -15.171522 91.369087 -27.096294 -21.570315 -5.250725 -6.005139 6.917401 -7.409555 -30.836217 -21.642564 -3.213375 -58.924172 -64.430049 -48.366226 -46.641955 6.596769 27.603028 0.566334 2.517502 2.378663 7.030716 -17.588546 -7.844120 -2.516157 10.297815 -5.506169 0.280674 0.851351 0.320995 1.335349 1.765805 -3.245477 1.146802 -11.703755 0.274615 -2.723618 6.335126 -2.518276 0.024572 -0.434591 -0.081019 
3.979627 1.534843 82.696129 -4.029024 -1.923742 -97.354648 -7.005273 -3.736875 4.611940 -3.216212 -2.333565 1.391143 -3.216214 -2.333566 1.391143 -2.406527 -1.757561 1.030961 5.846475 -12.654265 -12.724095 5.856396 12.594520 -21.765071 1.358961 18.143332 -6.791927 28.287049 9.344103 38.059815 -26.194851 -15.008752 93.768682 -27.977278 -20.984204 -4.469537 -6.010940 6.808867 -7.324172 -30.792129 -21.668058 -3.190953 -58.790116 -64.499430 -48.611990 -46.545260 6.800541 27.754629 0.379340 3.268027 2.520711 7.563766 -18.682014 -8.177222 -2.816445 10.734342 -5.671177 0.341902 0.797188 0.355037 1.128000 2.580902 -3.598798 1.330549 -13.083764 0.376552 -2.718576 7.058983 -2.370329 -0.084577 -0.451893 -0.083282 
3.873301 1.528940 82.570282 -3.928098 -1.882119 -97.325606 -7.051818 -3.767052 4.566554 -3.244170 -2.355201 1.365947 -3.244171 -2.355201 1.365946 -2.427535 -1.773720 1.011840 5.942039 -12.459164 -12.704545 6.019137 12.967806 -21.702723 1.269498 17.970974 -6.920873 28.257406 9.431636 38.014914 -25.946922 -14.876939 96.063735 -29.055522 -20.336108 -3.492671 -6.014256 6.675651 -7.232455 -30.748231 -21.700998 -3.204710 -58.662917 -64.566133 -48.837946 -46.410644 6.969935 27.929159 0.223984 3.974548 2.661605 8.070721 -19.730093 -8.474024 -3.113870 11.182964 -5.803933 0.394975 0.725493 0.379998 0.948740 3.424816 -3.958375 1.481568 -14.511683 0.448011 -2.633863 7.818877 -2.173335 -0.228087 -0.491730 -0.088258 
3.760083 1.507290 82.439949 -3.836355 -1.846348 -97.357120 -7.100794 -3.790975 4.539221 -3.263075 -2.379650 1.347509 -3.263075 -2.379650 1.347509 -2.441722 -1.792002 0.997808 6.038399 -12.259809 -12.692636 6.180271 13.348348 -21.654488 1.185992 17.859821 -7.039659 28.165479 9.375535 37.954910 -25.752156 -14.652590 98.344492 -30.069269 -19.692158 -2.536451 -6.047190 6.578654 -7.156342 -30.699433 -21.737441 -3.174528 -58.545807 -64.647426 -49.049030 -46.268866 7.092614 28.086479 0.095288 4.701105 2.878640 8.571789 -20.815387 -8.743486 -3.397938 11.619597 -5.938876 0.426566 0.682107 0.380488 0.808609 4.202390 -4.190627 1.584472 -15.879913 0.543993 -2.479470 8.584144 -2.056825 -0.384527 -0.538059 -0.082201 
3.645226 1.475426 82.307838 -3.709004 -1.802173 -97.489967 -7.159770 -3.759885 4.572239 -3.283934 -2.403048 1.335295 -3.283937 -2.403047 1.335295 -2.457348 -1.809531 0.988439 6.140305 -12.057609 -12.683519 6.350941 13.734519 -21.608994 1.100969 17.592660 -7.164185 28.117263 9.397956 37.980790 -25.627669 -14.371731 100.658362 -30.973880 -19.058388 -1.665537 -6.106374 6.501476 -7.110947 -30.635045 -21.754911 -3.064855 -58.418533 -64.727579 -49.263911 -46.149071 7.172953 28.223161 -0.009070 5.526301 3.230776 9.089868 -21.975553 -9.026234 -3.682773 12.018818 -6.147516 0.450018 0.696895 0.365158 0.677617 4.984236 -4.196316 1.736526 -17.174799 0.572725 -2.317530 9.304196 -1.962225 -0.537252 -0.576018 -0.075290 
3.599196 1.423829 82.181862 -3.985262 -1.794099 -98.140365 -7.263298 -4.074353 5.149470 -3.309854 -2.430751 1.323645 -3.309853 -2.430750 1.323645 -2.476766 -1.830304 0.979447 6.235653 -11.836641 -12.665233 6.511108 14.154937 -21.549778 1.016965 17.131520 -7.265633 28.138242 9.621438 38.121451 -25.483716 -14.153339 102.984718 -31.939962 -18.392497 -0.740964 -6.163967 6.408242 -7.068553 -30.554093 -21.716110 -2.941042 -58.281943 -64.774126 -49.504463 -46.078112 7.243926 28.339604 -0.038737 5.992136 4.131628 9.592868 -23.178510 -9.342191 -3.995225 12.355174 -6.402046 0.505765 0.767823 0.388004 0.529877 5.030420 -3.687892 1.885267 -18.102761 0.547337 -1.925178 10.110761 -1.521999 -0.800251 -0.735201 -0.303655 
3.471174 1.377334 82.054779 -3.908346 -1.730773 -98.459745 -7.341445 -4.078116 5.312574 -3.341713 -2.466962 1.313512 -3.341713 -2.466963 1.313512 -2.500607 -1.857479 0.971519 6.318232 -11.601266 -12.636845 6.650007 14.600901 -21.477368 0.937259 16.692998 -7.374892 28.202889 9.832410 38.303769 -25.327603 -14.004867 105.305077 -33.005557 -17.670565 0.232658 -6.200055 6.306536 -7.006056 -30.470942 -21.616435 -2.846683 -58.206804 -64.801529 -49.691754 -46.032384 7.307654 28.445492 -0.083596 6.816595 4.639376 10.072196 -24.349013 -9.625103 -4.323077 12.644458 -6.663454 0.564301 0.841988 0.400028 0.386261 5.624721 -3.580925 2.044432 -19.152547 0.386800 -1.615857 10.747449 -1.107972 -0.978314 -0.779851 -0.336667 
3.361508 1.328889 81.932076 -3.841545 -1.653060 -98.754686 -7.428367 -4.096410 5.459262 -3.376819 -2.491786 1.300915 -3.376821 -2.491786 1.300916 -2.526921 -1.876103 0.961792 6.388681 -11.375722 -12.616553 6.764220 15.026587 -21.424611 0.870321 16.337389 -7.499276 28.235138 9.933034 38.456632 -25.077002 -13.914234 107.593887 -34.072648 -16.954864 1.165441 -6.225782 6.192670 -6.927471 -30.385148 -21.501671 -2.784667 -58.152866 -64.838316 -49.851608 -45.987421 7.408037 28.523809 -0.160256 7.539418 4.966707 10.503298 -25.422365 -9.802947 -4.630389 12.978687 -6.785378 0.591429 0.853541 0.367620 0.231527 6.172147 -3.558976 2.169341 -20.139766 0.265379 -1.266522 11.339766 -0.657704 -1.139778 -0.803325 -0.378559 
